<?xml version="1.0" standalone="no"?>
<!DOCTYPE svg PUBLIC "-//W3C//DTD SVG 20010904//EN"
 "http://www.w3.org/TR/2001/REC-SVG-20010904/DTD/svg10.dtd">
<svg version="1.0" xmlns="http://www.w3.org/2000/svg"
 width="512.000000pt" height="512.000000pt" viewBox="0 0 512.000000 512.000000"
 preserveAspectRatio="xMidYMid meet">
<metadata>
Created by potrace 1.14, written by Peter Selinger 2001-2017
</metadata>
<g transform="translate(0.000000,512.000000) scale(0.100000,-0.100000)"
fill="#000000" stroke="none">
<path d="M2290 5105 c-165 -22 -168 -23 -342 -61 l-28 -6 0 -688 0 -687 73 38
c159 85 343 130 542 134 148 3 211 -3 340 -36 420 -106 772 -434 899 -838 50
-159 61 -227 61 -401 0 -165 -9 -235 -50 -370 -98 -327 -342 -618 -650 -772
-74 -38 -226 -94 -278 -104 -198 -37 -393 -40 -546 -10 -280 57 -538 209 -727
431 -151 177 -233 354 -290 625 -4 19 -9 568 -11 1220 -2 651 -6 1186 -8 1188
-5 6 -193 -118 -285 -188 -140 -106 -306 -270 -427 -423 -74 -92 -203 -279
-203 -293 0 -4 -6 -15 -14 -23 -31 -35 -138 -265 -199 -427 -18 -47 -74 -238
-80 -274 -3 -14 -8 -36 -11 -50 -37 -160 -53 -338 -50 -565 1 -121 5 -229 7
-240 3 -12 8 -48 12 -80 8 -67 7 -61 30 -170 157 -758 665 -1419 1355 -1761
158 -78 182 -88 345 -142 133 -45 274 -80 391 -97 22 -4 50 -8 64 -11 69 -13
173 -18 345 -19 217 0 307 8 480 41 44 8 91 18 105 20 131 25 390 118 553 200
640 319 1107 869 1316 1549 78 254 105 448 106 740 0 193 -3 251 -16 330 -4
28 -10 66 -13 85 -2 19 -9 58 -15 85 -6 28 -13 61 -15 75 -19 96 -80 286 -133
415 -158 383 -428 742 -754 1005 -93 75 -272 200 -286 200 -4 0 -14 6 -22 14
-20 18 -257 137 -331 166 -192 77 -410 136 -610 165 -19 3 -53 7 -75 11 -84
12 -461 11 -555 -1z"/>
<path d="M2395 3176 c-118 -32 -199 -79 -285 -166 -123 -124 -180 -254 -185
-425 -4 -126 12 -202 66 -313 72 -149 207 -263 379 -323 84 -28 237 -35 330
-13 219 51 403 221 472 437 27 83 33 240 12 327 -27 116 -86 221 -172 308 -96
96 -178 142 -322 179 -8 2 -60 6 -115 8 -81 3 -116 -1 -180 -19z"/>
</g>
</svg>
